<mxfile host="app.diagrams.net" modified="2025-07-03T12:00:00.000Z" agent="ChatGPT" etag="IDS-CTGAN-RL" version="27.0.6">
  <!-- ========= PAGE 1 ========= -->
  <diagram id="page1" name="IDS + CTGAN Architecture">
    <mxGraphModel dx="1400" dy="800" grid="1" gridSize="10" page="1" pageScale="1" pageWidth="1600" pageHeight="1200">
      <root>
        <mxCell id="0"/>
        <mxCell id="1" parent="0"/>

        <!-- ===== Module frames ===== -->
        <mxCell id="boxIDS" value="" style="rounded=1;dashed=1;fillColor=none;strokeColor=#000000;" vertex="1" parent="1">
          <mxGeometry x="40" y="30" width="400" height="120" as="geometry"/>
        </mxCell>
        <mxCell id="labIDS" value="IDS Module" style="text;html=1;fontStyle=1;fillColor=none;strokeColor=none;" vertex="1" parent="1">
          <mxGeometry x="50" y="10" width="100" height="20" as="geometry"/>
        </mxCell>

        <mxCell id="boxCTRL" value="" style="rounded=1;dashed=1;fillColor=none;strokeColor=#000000;" vertex="1" parent="1">
          <mxGeometry x="500" y="30" width="380" height="120" as="geometry"/>
        </mxCell>
        <mxCell id="labCTRL" value="Controller Module" style="text;html=1;fontStyle=1;fillColor=none;strokeColor=none;" vertex="1" parent="1">
          <mxGeometry x="510" y="10" width="150" height="20" as="geometry"/>
        </mxCell>

        <mxCell id="boxCOL" value="" style="rounded=1;dashed=1;fillColor=none;strokeColor=#000000;" vertex="1" parent="1">
          <mxGeometry x="40" y="180" width="400" height="120" as="geometry"/>
        </mxCell>
        <mxCell id="labCOL" value="Data Collection Module" style="text;html=1;fontStyle=1;fillColor=none;strokeColor=none;" vertex="1" parent="1">
          <mxGeometry x="50" y="160" width="170" height="20" as="geometry"/>
        </mxCell>

        <mxCell id="boxSYN" value="" style="rounded=1;dashed=1;fillColor=none;strokeColor=#000000;" vertex="1" parent="1">
          <mxGeometry x="40" y="340" width="840" height="150" as="geometry"/>
        </mxCell>
        <mxCell id="labSYN" value="Data Synthesizer Module" style="text;html=1;fontStyle=1;fillColor=none;strokeColor=none;" vertex="1" parent="1">
          <mxGeometry x="50" y="320" width="180" height="20" as="geometry"/>
        </mxCell>

        <!-- ===== Shapes inside modules ===== -->
        <!-- IDS -->
        <mxCell id="ids" value="IDS" style="rounded=1;fillColor=#ffb366;strokeColor=#d79b00;fontStyle=1;" vertex="1" parent="1">
          <mxGeometry x="200" y="60" width="80" height="50" as="geometry"/>
        </mxCell>

        <!-- Controller parts -->
        <mxCell id="pp" value="$P_P$" style="rounded=1;fillColor=#dae8fc;strokeColor=#6c8ebf;" vertex="1" parent="1">
          <mxGeometry x="520" y="60" width="60" height="40" as="geometry"/>
        </mxCell>
        <mxCell id="ph" value="$P_H$" style="rounded=1;fillColor=#dae8fc;strokeColor=#6c8ebf;" vertex="1" parent="1">
          <mxGeometry x="600" y="60" width="60" height="40" as="geometry"/>
        </mxCell>
        <mxCell id="ctrl" value="Controller" style="rounded=1;fillColor=#9ccdf3;strokeColor=#1c4587;fontStyle=1;" vertex="1" parent="1">
          <mxGeometry x="680" y="60" width="160" height="50" as="geometry"/>
        </mxCell>

        <!-- Data Collector + DB -->
        <mxCell id="collector" value="Data Collector" style="rounded=1;fillColor=#b6d7a8;strokeColor=#38761d;" vertex="1" parent="1">
          <mxGeometry x="60" y="210" width="120" height="50" as="geometry"/>
        </mxCell>
        <mxCell id="db" value="Database" style="rounded=1;fillColor=#6aa84f;strokeColor=#274e13;fontStyle=1;" vertex="1" parent="1">
          <mxGeometry x="220" y="210" width="120" height="50" as="geometry"/>
        </mxCell>

        <!-- Synthesizer -->
        <mxCell id="noise" value="Noise" style="rounded=1;fillColor=#000000;fontColor=#ffffff;" vertex="1" parent="1">
          <mxGeometry x="60" y="380" width="80" height="50" as="geometry"/>
        </mxCell>
        <mxCell id="gen" value="Generator G" style="rounded=1;fillColor=#b4a7d6;strokeColor=#674ea7;fontStyle=1;" vertex="1" parent="1">
          <mxGeometry x="160" y="380" width="120" height="50" as="geometry"/>
        </mxCell>
        <mxCell id="fake" value="Fake Samples" style="rounded=1;fillColor=#ea9999;strokeColor=#990000;" vertex="1" parent="1">
          <mxGeometry x="300" y="380" width="120" height="50" as="geometry"/>
        </mxCell>
        <mxCell id="disc" value="Discriminator D" style="rounded=1;fillColor=#a4c2f4;strokeColor=#1155cc;" vertex="1" parent="1">
          <mxGeometry x="460" y="380" width="140" height="50" as="geometry"/>
        </mxCell>
        <mxCell id="trainDisc" value="Train Discriminator" style="rounded=1;fillColor=#cccccc;strokeColor=#666666;" vertex="1" parent="1">
          <mxGeometry x="620" y="380" width="140" height="40" as="geometry"/>
        </mxCell>
        <mxCell id="trainGen" value="Train Generator" style="rounded=1;fillColor=#cccccc;strokeColor=#666666;" vertex="1" parent="1">
          <mxGeometry x="620" y="430" width="140" height="40" as="geometry"/>
        </mxCell>
        <mxCell id="loss" value="Loss Calculation" style="rounded=1;fillColor=#dddddd;strokeColor=#666666;" vertex="1" parent="1">
          <mxGeometry x="460" y="440" width="140" height="40" as="geometry"/>
        </mxCell>

        <!-- ===== Arrows ===== -->
        <mxCell style="endArrow=block;" edge="1" parent="1" source="collector" target="db">
          <mxGeometry relative="1" as="geometry"/>
        </mxCell>
        <mxCell style="endArrow=block;" edge="1" parent="1" source="db" target="ctgan">
          <mxGeometry relative="1" as="geometry"/>
        </mxCell>
        <mxCell style="endArrow=block;" edge="1" parent="1" source="ctgan" target="pretrainIDS">
          <mxGeometry relative="1" as="geometry"/>
        </mxCell>
        <mxCell style="endArrow=block;dashed=1;" edge="1" parent="1" source="db" target="ids">
          <mxGeometry relative="1" as="geometry"/>
        </mxCell>

        <mxCell style="endArrow=block;" edge="1" parent="1" source="noise" target="gen">
          <mxGeometry relative="1" as="geometry"/>
        </mxCell>
        <mxCell style="endArrow=block;" edge="1" parent="1" source="gen" target="fake">
          <mxGeometry relative="1" as="geometry"/>
        </mxCell>
        <mxCell style="endArrow=block;" edge="1" parent="1" source="fake" target="disc">
          <mxGeometry relative="1" as="geometry"/>
        </mxCell>
        <mxCell style="endArrow=block;" edge="1" parent="1" source="disc" target="loss">
          <mxGeometry relative="1" as="geometry"/>
        </mxCell>
        <mxCell style="endArrow=block;" edge="1" parent="1" source="loss" target="trainDisc">
          <mxGeometry relative="1" as="geometry"/>
        </mxCell>
        <mxCell style="endArrow=block;" edge="1" parent="1" source="loss" target="trainGen">
          <mxGeometry relative="1" as="geometry"/>
        </mxCell>
      </root>
    </mxGraphModel>
  </diagram>

  <!-- ========= PAGE 2 ========= -->
  <diagram id="page2" name="Detection Pipeline">
    <mxGraphModel dx="1400" dy="800" grid="1" gridSize="10" page="1" pageScale="1" pageWidth="1600" pageHeight="1200">
      <root>
        <mxCell id="0"/>
        <mxCell id="1" parent="0"/>

        <!-- Top GAN pipeline -->
        <mxCell id="noiseT" value="Input Noise" style="rounded=1;fillColor=#000000;fontColor=#ffffff;" vertex="1" parent="1">
          <mxGeometry x="40" y="40" width="100" height="40" as="geometry"/>
        </mxCell>
        <mxCell id="ioti" value="IoTI" style="rounded=1;fillColor=#b6d7a8;strokeColor=#38761d;" vertex="1" parent="1">
          <mxGeometry x="160" y="40" width="100" height="40" as="geometry"/>
        </mxCell>
        <mxCell id="ddgan" value="DD-GAN" style="rounded=1;fillColor=#b4a7d6;strokeColor=#674ea7;" vertex="1" parent="1">
          <mxGeometry x="280" y="40" width="100" height="40" as="geometry"/>
        </mxCell>
        <mxCell id="iotn" value="IoTn" style="rounded=1;fillColor=#b6d7a8;strokeColor=#38761d;" vertex="1" parent="1">
          <mxGeometry x="400" y="40" width="100" height="40" as="geometry"/>
        </mxCell>
        <mxCell id="fakeT" value="Fake Samples" style="rounded=1;fillColor=#ea9999;strokeColor=#990000;" vertex="1" parent="1">
          <mxGeometry x="40" y="100" width="120" height="40" as="geometry"/>
        </mxCell>
        <mxCell id="discT" value="Discriminator" style="rounded=1;fillColor=#a4c2f4;strokeColor=#1155cc;" vertex="1" parent="1">
          <mxGeometry x="180" y="100" width="120" height="40" as="geometry"/>
        </mxCell>
        <mxCell id="trainDiscT" value="Train Discriminator" style="rounded=1;fillColor=#6d9eeb;strokeColor=#1155cc;" vertex="1" parent="1">
          <mxGeometry x="320" y="100" width="150" height="40" as="geometry"/>
        </mxCell>
        <mxCell id="trainGenT" value="Train Generator" style="rounded=1;fillColor=#6d9eeb;strokeColor=#1155cc;" vertex="1" parent="1">
          <mxGeometry x="320" y="150" width="150" height="40" as="geometry"/>
        </mxCell>

        <!-- HAR Dataset -->
        <mxCell id="har" value="HAR Dataset" style="shape=datastore;fillColor=#fff2cc;strokeColor=#d6b656;" vertex="1" parent="1">
          <mxGeometry x="40" y="220" width="100" height="60" as="geometry"/>
        </mxCell>
        <mxCell id="controller" value="Controller" style="rounded=1;fillColor=#ff6666;strokeColor=#990000;fontColor=#ffffff;" vertex="1" parent="1">
          <mxGeometry x="160" y="240" width="100" height="40" as="geometry"/>
        </mxCell>

        <!-- Pre-processing -->
        <mxCell id="smote" value="Data Pre-Processing\\nusing SMOTE" style="rounded=1;fillColor=#ffe6cc;strokeColor=#d79b00;" vertex="1" parent="1">
          <mxGeometry x="300" y="220" width="200" height="60" as="geometry"/>
        </mxCell>
        <mxCell id="featExt" value="Feature Extraction\\nusing MPCA" style="rounded=1;fillColor=#d5e8d4;strokeColor=#38761d;" vertex="1" parent="1">
          <mxGeometry x="300" y="300" width="200" height="60" as="geometry"/>
        </mxCell>
        <mxCell id="featSel" value="Feature Selection\\nusing IFFO" style="rounded=1;fillColor=#d5e8d4;strokeColor=#38761d;" vertex="1" parent="1">
          <mxGeometry x="300" y="380" width="200" height="60" as="geometry"/>
        </mxCell>
        <mxCell id="detect" value="Detection\\nHDLCNN+ANFIS" style="rounded=1;fillColor=#f8cecc;strokeColor=#b85450;fontStyle=1;" vertex="1" parent="1">
          <mxGeometry x="300" y="460" width="200" height="60" as="geometry"/>
        </mxCell>

        <!-- Arrows -->
        <mxCell style="endArrow=block;" edge="1" parent="1" source="noiseT" target="ioti"><mxGeometry relative="1" as="geometry"/></mxCell>
        <mxCell style="endArrow=block;" edge="1" parent="1" source="ioti" target="ddgan"><mxGeometry relative="1" as="geometry"/></mxCell>
        <mxCell style="endArrow=block;" edge="1" parent="1" source="ddgan" target="iotn"><mxGeometry relative="1" as="geometry"/></mxCell>
        <mxCell style="endArrow=block;" edge="1" parent="1" source="iotn" target="fakeT"><mxGeometry relative="1" as="geometry"/></mxCell>
        <mxCell style="endArrow=block;" edge="1" parent="1" source="fakeT" target="discT"><mxGeometry relative="1" as="geometry"/></mxCell>
        <mxCell style="endArrow=block;" edge="1" parent="1" source="discT" target="trainDiscT"><mxGeometry relative="1" as="geometry"/></mxCell>
        <mxCell style="endArrow=block;" edge="1" parent="1" source="trainDiscT" target="trainGenT"><mxGeometry relative="1" as="geometry"/></mxCell>

        <mxCell style="endArrow=block;" edge="1" parent="1" source="har" target="smote"><mxGeometry relative="1" as="geometry"/></mxCell>
        <mxCell style="endArrow=block;" edge="1" parent="1" source="smote" target="featExt"><mxGeometry relative="1" as="geometry"/></mxCell>
        <mxCell style="endArrow=block;" edge="1" parent="1" source="featExt" target="featSel"><mxGeometry relative="1" as="geometry"/></mxCell>
        <mxCell style="endArrow=block;" edge="1" parent="1" source="featSel" target="detect"><mxGeometry relative="1" as="geometry"/></mxCell>

      </root>
    </mxGraphModel>
  </diagram>
</mxfile>
